<svg width="156" height="64" viewBox="0 0 156 64" fill="none" xmlns="http://www.w3.org/2000/svg">
<g clip-path="url(#clip0_405_4282)">
<path d="M124.463 30.1397C123.771 28.1357 122.749 26.3925 121.464 24.9501C120.146 23.4731 118.552 22.318 116.756 21.5383C114.983 20.7665 113.011 20.3593 110.909 20.3593C109.735 20.3593 108.633 20.487 107.603 20.7292C106.542 20.9794 105.554 21.3546 104.639 21.8417C103.936 22.2169 103.279 22.656 102.667 23.1564C102.326 23.4358 102.001 23.7392 101.685 24.0559V23.9601C101.685 23.2415 101.578 22.68 101.381 22.2382C101.174 21.7751 100.87 21.4478 100.484 21.2109C100.136 20.998 99.7525 20.8862 99.3373 20.8277C99.0526 20.7878 96.3673 20.8037 94.837 20.817C94.2515 20.8224 93.7831 21.2961 93.7831 21.8816V60.809C93.7831 61.5276 93.8895 62.0892 94.0865 62.5309C94.2941 62.994 94.5975 63.3214 94.9834 63.5582C95.332 63.7711 95.7152 63.8829 96.1304 63.9414C96.5296 63.9973 96.9501 64.0027 97.4025 64.0027H98.0679C98.5017 64.0027 98.9142 63.9973 99.3107 63.9414C99.7232 63.8829 100.106 63.7738 100.458 63.5609C100.844 63.3267 101.155 63.002 101.368 62.5389C101.573 62.0971 101.685 61.5329 101.685 60.809V49.2801C101.991 49.5862 102.318 49.8789 102.667 50.1583C103.212 50.5948 103.811 50.994 104.46 51.3506C105.373 51.8483 106.379 52.2502 107.468 52.5243C108.484 52.7798 109.576 52.9208 110.725 52.9208C112.86 52.9208 114.848 52.5083 116.631 51.7365C118.456 50.9461 120.064 49.7831 121.392 48.3034C122.701 46.8423 123.739 45.0778 124.442 43.0632C125.12 41.1151 125.488 38.9381 125.488 36.5828C125.488 34.2275 125.126 32.0719 124.46 30.145L124.463 30.1397ZM109.756 27.2309C110.904 27.2309 111.968 27.4624 112.923 27.8935C113.903 28.3353 114.768 28.99 115.484 29.815C116.213 30.656 116.79 31.678 117.182 32.8463C117.565 33.9827 117.77 35.2575 117.77 36.6387C117.77 38.02 117.568 39.356 117.187 40.5057C116.801 41.674 116.229 42.6906 115.502 43.5183C114.792 44.33 113.921 44.9661 112.923 45.3972C111.947 45.8204 110.906 46.0439 109.701 46.0439C108.495 46.0439 107.553 45.8177 106.576 45.3972C105.578 44.9661 104.708 44.3273 103.997 43.5183C103.271 42.6906 102.701 41.674 102.313 40.5057C101.932 39.356 101.73 38.0572 101.73 36.6387C101.73 35.2601 101.937 33.9827 102.318 32.8463C102.709 31.6806 103.287 30.6587 104.016 29.815C104.729 28.99 105.594 28.3353 106.576 27.8935C107.529 27.4624 108.596 27.2309 109.743 27.2309" fill="#231F20"/>
<path d="M23.0499 35.7099C20.7931 34.3553 17.9694 33.7432 15.6008 33.2322L15.5662 33.2242C14.4085 32.9714 13.3865 32.7452 12.5136 32.5136C11.6487 32.2821 10.9355 32.0453 10.3819 31.7685C9.93213 31.5423 9.59147 31.2868 9.37058 30.9754C9.15767 30.6747 9.04856 30.3101 9.04856 29.8523C9.04856 29.3946 9.15235 28.9927 9.35461 28.6361C9.55688 28.2794 9.86559 27.9654 10.2728 27.7073C10.7305 27.4172 11.308 27.191 12 27.0366C12.684 26.8849 13.4824 26.8051 14.3979 26.8051C15.3134 26.8051 16.0665 26.8982 16.7904 27.0659C17.5143 27.2335 18.1716 27.4757 18.7838 27.7738L18.97 27.8643C19.5209 28.149 20.0399 28.4817 20.5456 28.849C21.1071 29.2588 21.65 29.7166 22.1876 30.1956L22.4245 30.4085L22.4351 30.3952C22.5203 30.4564 22.6081 30.5123 22.6959 30.5602C22.8769 30.6614 23.0632 30.7305 23.2522 30.7785C23.5316 30.845 23.8004 30.853 24.0585 30.8077C24.3247 30.7598 24.5802 30.656 24.8197 30.5043C25.0166 30.3766 25.2003 30.2169 25.3679 30.0253C25.5329 29.839 25.6793 29.6208 25.8044 29.3812C25.9667 29.0699 26.0971 28.7159 26.185 28.338C26.2701 27.9734 26.3154 27.5822 26.3154 27.183C26.3154 26.2355 25.9694 25.2615 25.2774 24.354C24.6414 23.5183 23.7099 22.7385 22.483 22.0971C21.4451 21.5542 20.1889 21.1018 18.7199 20.7958C17.3759 20.5163 15.8536 20.3566 14.1557 20.3566C12.314 20.3566 10.6294 20.5961 9.13106 21.0433C7.58482 21.5063 6.23818 22.1903 5.1284 23.0632C3.98136 23.9654 3.08715 25.0619 2.48302 26.3234C1.88688 27.5609 1.57284 28.9501 1.57284 30.4564C1.57284 32.1996 1.99334 33.6048 2.70391 34.7492C3.41183 35.8936 4.40185 36.7691 5.54091 37.4558C6.62141 38.1078 7.827 38.5789 9.04058 38.9461C10.2355 39.3081 11.4544 39.5715 12.5642 39.8057L12.7585 39.8483C14.9088 40.3114 16.5988 40.6733 17.7245 41.2109C18.7651 41.7059 19.3213 42.3606 19.3213 43.4225C19.3213 43.859 19.2176 44.2555 19.0126 44.5988C18.805 44.9501 18.491 45.2562 18.0785 45.509C17.6074 45.7964 17.014 46.0226 16.3034 46.1743C15.5981 46.326 14.7784 46.4059 13.8496 46.4059C11.3027 46.4059 9.51696 45.8869 8.15169 45.1497C6.78375 44.4125 5.82035 43.4438 4.93678 42.5549L4.70791 42.326C4.59347 42.2116 4.46839 42.1158 4.33532 42.0439C4.19693 41.9667 4.05055 41.9109 3.90152 41.8789C3.65401 41.8257 3.39853 41.831 3.1457 41.8922C2.89287 41.9534 2.64536 42.0679 2.41383 42.2276C2.2302 42.3526 2.04922 42.5097 1.88156 42.6933C1.71656 42.8716 1.5622 43.0739 1.42381 43.2948C1.20824 43.6381 1.02727 44.0346 0.902184 44.4657C0.787747 44.8649 0.718552 45.2881 0.718552 45.7192C0.718552 46.6906 1.10445 47.7073 1.87091 48.6574C2.57351 49.5276 3.60079 50.3473 4.94477 51.0206C6.07584 51.5902 7.44377 52.0639 9.04324 52.3859C10.499 52.6787 12.1437 52.849 13.9694 52.849C15.9148 52.849 17.6846 52.6174 19.2495 52.1783C20.8569 51.7259 22.2488 51.0552 23.3905 50.193C24.5722 49.3014 25.4903 48.2076 26.1078 46.9435C26.7172 45.6979 27.0366 44.2901 27.0366 42.7518C27.0366 39.2202 25.3466 37.0858 23.0472 35.7046L23.0499 35.7099Z" fill="#231F20"/>
<path d="M37.6128 22.2355C37.4052 21.7725 37.1018 21.4451 36.7159 21.2082C36.3673 20.9953 35.984 20.8836 35.5688 20.825C35.2841 20.7851 32.5988 20.8011 31.0685 20.8144C30.483 20.8197 30.0146 21.2934 30.0146 21.8789V49.1763C30.0146 49.9002 30.1264 50.4644 30.3313 50.9088C30.5469 51.3719 30.8609 51.6993 31.2548 51.9335C31.6088 52.1437 31.9947 52.2528 32.4152 52.3087C32.8197 52.3646 35.167 52.3646 35.5662 52.3087C35.9814 52.2502 36.3646 52.1384 36.7132 51.9255C37.0965 51.6886 37.4025 51.3613 37.6101 50.8982C37.807 50.4564 37.9135 49.8949 37.9135 49.1763V23.9574C37.9135 23.2389 37.807 22.6773 37.6101 22.2355H37.6128Z" fill="#231F20"/>
<path d="M89.0486 27.8297C88.5402 26.2329 87.7738 24.8596 86.7492 23.7392C85.7352 22.6294 84.4764 21.7751 82.9727 21.2029C81.5116 20.6467 79.8217 20.3593 77.8975 20.3593C76.7212 20.3593 75.6274 20.5083 74.6134 20.7824C73.5329 21.0752 72.5456 21.509 71.646 22.0519C70.8556 22.5309 70.1317 23.0951 69.477 23.7259C68.9048 24.2768 68.3832 24.8756 67.9122 25.5116C67.5476 24.8756 67.1271 24.2928 66.656 23.7658C66.0758 23.1164 65.4185 22.5549 64.684 22.0838C63.803 21.517 62.8184 21.0832 61.7325 20.7931C60.6706 20.5083 59.513 20.3619 58.2675 20.3619C57.2987 20.3619 56.3832 20.4977 55.5209 20.7452C54.5975 21.0087 53.7378 21.3999 52.9394 21.8869C52.3007 22.2755 51.7019 22.7252 51.1457 23.2202C50.8343 23.497 50.5416 23.7898 50.2541 24.0878V23.9627C50.2541 23.2442 50.1477 22.6826 49.9508 22.2409C49.7432 21.7778 49.4398 21.4504 49.0539 21.2136C48.7052 21.0007 48.322 20.8889 47.9068 20.8303C47.6221 20.7904 44.9368 20.8064 43.4065 20.8197C42.821 20.825 42.3526 21.2987 42.3526 21.8842V49.1816C42.3526 49.9002 42.4591 50.4617 42.656 50.9035C42.8636 51.3666 43.167 51.6939 43.5529 51.9308C43.9015 52.1437 44.2848 52.2555 44.6999 52.314C45.0991 52.3699 45.5196 52.3753 45.9694 52.3753H46.6347C47.0313 52.3753 47.4065 52.3699 47.7711 52.3273C47.827 52.3247 47.8749 52.3194 47.9068 52.314C48.322 52.2555 48.7052 52.1437 49.0539 51.9308C49.4371 51.6939 49.7432 51.3666 49.9508 50.9035C50.1477 50.4617 50.2541 49.9002 50.2541 49.1816V35.1218C50.2541 33.9348 50.4138 32.8676 50.7172 31.9361C51.0233 30.9887 51.4784 30.1796 52.0585 29.525C52.6281 28.8836 53.328 28.3832 54.1424 28.0452C54.9461 27.7126 55.8643 27.5369 56.8756 27.5369C57.6899 27.5369 58.4192 27.6886 59.0499 27.9814C59.686 28.2741 60.2289 28.7132 60.668 29.2801C61.1337 29.8816 61.4903 30.6321 61.7325 31.521C61.9747 32.4072 62.0998 33.4318 62.0998 34.5815V49.1816C62.0998 49.9055 62.2116 50.4697 62.4165 50.9142C62.6321 51.3772 62.9461 51.7046 63.34 51.9388C63.6939 52.149 64.0825 52.2582 64.503 52.314C64.9075 52.3699 65.3307 52.3753 65.7778 52.3753H66.3846C66.8343 52.3753 67.2548 52.3699 67.654 52.314C68.0692 52.2555 68.4524 52.1437 68.8011 51.9308C69.1843 51.6939 69.4903 51.3666 69.6979 50.9035C69.8949 50.4617 70.0013 49.9002 70.0013 49.1816V35.1271C70.0013 33.9401 70.161 32.8703 70.4644 31.9361C70.7704 30.9887 71.2255 30.1796 71.8057 29.525C72.3752 28.8836 73.0752 28.3832 73.8895 28.0452C74.6933 27.7126 75.6114 27.5369 76.6227 27.5369C77.4424 27.5369 78.177 27.6886 78.8157 27.984C79.4597 28.2794 80.0106 28.7212 80.4577 29.2934C80.9261 29.8949 81.2907 30.6454 81.5356 31.5343C81.7804 32.4178 81.9082 33.4371 81.9082 34.5815V49.1816C81.9082 49.9029 82.0146 50.4644 82.2142 50.9062C82.4218 51.3693 82.7305 51.6966 83.1191 51.9335C83.4704 52.1437 83.8563 52.2555 84.2821 52.314C84.6919 52.3699 85.1204 52.3753 85.5862 52.3753H86.1929C86.6427 52.3753 87.0632 52.3699 87.4651 52.314C87.8802 52.2555 88.2635 52.1437 88.6121 51.9308C88.9953 51.6939 89.3014 51.3666 89.509 50.9035C89.7059 50.4617 89.8124 49.9002 89.8124 49.1816V33.3094C89.8124 31.2761 89.5569 29.4424 89.0459 27.835L89.0486 27.8297Z" fill="#231F20"/>
<path d="M155.273 36.6414V32.9421C155.273 30.9541 154.973 29.171 154.379 27.6114C153.783 26.0439 152.889 24.7026 151.707 23.6141C150.547 22.5416 149.115 21.7219 147.422 21.1737C145.767 20.6361 143.862 20.3593 141.719 20.3593C139.577 20.3593 137.855 20.5988 136.277 21.014C134.528 21.4744 133.073 22.1477 131.912 22.9461C129.578 24.5509 128.41 26.68 128.41 28.6414C128.41 29.2961 128.532 29.8576 128.737 30.3313C128.971 30.8716 129.315 31.2947 129.711 31.6141C129.868 31.7419 130.033 31.8483 130.201 31.9388C130.374 32.0319 130.555 32.1091 130.741 32.173C130.919 32.2315 131.098 32.2768 131.273 32.3061C131.46 32.338 131.638 32.3513 131.808 32.3513C132.197 32.3513 132.572 32.2768 132.902 32.1411C133.227 32.0053 133.509 31.8084 133.717 31.5582L133.746 31.5263C134.238 30.8902 134.715 30.2888 135.212 29.7512C135.705 29.2216 136.216 28.7532 136.785 28.3726C137.339 28 137.964 27.7019 138.696 27.4943C139.433 27.2868 140.285 27.1723 141.293 27.1723C142.302 27.1723 143.239 27.3001 144.011 27.5502C144.774 27.7977 145.411 28.1677 145.913 28.652C146.411 29.1311 146.786 29.7352 147.039 30.4591C147.268 31.1164 147.399 31.8696 147.425 32.7186H146.888L146.869 32.7239C143.697 32.7878 140.908 33.022 138.502 33.4451C136.069 33.8736 134.023 34.4963 132.367 35.332C130.619 36.2156 129.299 37.328 128.41 38.6933C127.521 40.0612 127.071 41.674 127.071 43.5476C127.071 44.9395 127.335 46.2222 127.843 47.3613C128.357 48.5136 129.115 49.517 130.102 50.3393C131.055 51.1351 132.216 51.7578 133.56 52.1757C134.858 52.5802 136.33 52.7957 137.956 52.7957C139.119 52.7957 140.247 52.6707 141.323 52.4338C142.419 52.1916 143.457 51.8297 144.418 51.3639C145.139 51.0153 145.815 50.6055 146.443 50.1424C146.786 49.8896 147.111 49.6154 147.422 49.3307C147.425 50.0333 147.532 50.5842 147.726 51.0206C147.933 51.4837 148.237 51.8111 148.623 52.0479C148.971 52.2608 149.355 52.3726 149.77 52.4311C150.055 52.4711 152.679 52.479 154.209 52.4657C154.794 52.4604 155.263 51.9867 155.263 51.4012V36.6494L155.273 36.6414ZM145.238 44.6094C144.519 45.2402 143.649 45.7379 142.653 46.0785C141.682 46.4112 140.593 46.5895 139.417 46.5895C138.664 46.5895 137.993 46.507 137.416 46.3473C136.838 46.1903 136.349 45.9561 135.96 45.6554C135.601 45.3786 135.324 45.0379 135.138 44.644C134.954 44.2528 134.856 43.8004 134.856 43.3001C134.856 42.5309 135.074 41.8762 135.505 41.3254C135.947 40.7585 136.62 40.2901 137.52 39.9042C138.536 39.4677 139.814 39.1377 141.349 38.8982C142.898 38.656 144.711 38.507 146.781 38.4325L147.43 38.4085V39.6647C147.43 40.66 147.234 41.5808 146.869 42.4032C146.494 43.2495 145.937 43.9947 145.238 44.6094Z" fill="#231F20"/>
<path d="M38.6507 11.5715C38.6507 8.41518 36.5269 5.02463 31.8696 5.02463C28.0931 5.02463 25.1364 7.88823 25.1364 11.654C25.1364 13.3706 25.2003 15.1164 25.2003 16.849C25.2003 17.6367 25.8443 18.2808 26.6321 18.2808C28.2901 18.2808 30.2275 18.4272 32.0213 18.2435C35.5635 17.8816 38.6534 16.4498 38.6534 11.5715H38.6507Z" fill="#EC008C"/>
<path d="M29.2801 6.76514C29.2801 9.92149 31.4038 13.312 36.0612 13.312C39.8376 13.312 42.7944 10.4484 42.7944 6.68263C42.7944 4.96607 42.7305 3.22023 42.7305 1.48769C42.7305 0.699932 42.0865 0.0558872 41.2987 0.0558872C39.6407 0.0558872 37.7033 -0.0904868 35.9095 0.093146C32.3673 0.455089 29.2774 1.88689 29.2774 6.76514H29.2801Z" fill="#00AEEF"/>
<path d="M29.2801 6.76514C29.2801 9.92149 31.4038 13.312 36.0612 13.312C36.9528 13.312 37.7991 13.1524 38.5709 12.8596C38.6241 12.4604 38.6507 12.0319 38.6507 11.5742C38.6507 8.41784 36.5269 5.02728 31.8696 5.02728C30.978 5.02728 30.1317 5.18696 29.3599 5.47971C29.3067 5.87891 29.2801 6.30739 29.2801 6.76514Z" fill="#A3238E"/>
</g>
<defs>
<clipPath id="clip0_405_4282">
<rect width="154.552" height="64" fill="white" transform="translate(0.723877)"/>
</clipPath>
</defs>
</svg>
